<svg width="33" height="19" viewBox="0 0 33 19" fill="none" xmlns="http://www.w3.org/2000/svg">
<path d="M15.3192 6H13.2056C13.0806 5.39205 12.8619 4.85795 12.5494 4.39773C12.2425 3.9375 11.8675 3.55114 11.4244 3.23864C10.9869 2.92045 10.5011 2.68182 9.96697 2.52273C9.43288 2.36364 8.87607 2.28409 8.29652 2.28409C7.2397 2.28409 6.28232 2.55114 5.42436 3.08523C4.57209 3.61932 3.89311 4.40625 3.38743 5.44602C2.88743 6.4858 2.63743 7.76136 2.63743 9.27273C2.63743 10.7841 2.88743 12.0597 3.38743 13.0994C3.89311 14.1392 4.57209 14.9261 5.42436 15.4602C6.28232 15.9943 7.2397 16.2614 8.29652 16.2614C8.87607 16.2614 9.43288 16.1818 9.96697 16.0227C10.5011 15.8636 10.9869 15.6278 11.4244 15.3153C11.8675 14.9972 12.2425 14.608 12.5494 14.1477C12.8619 13.6818 13.0806 13.1477 13.2056 12.5455H15.3192C15.1602 13.4375 14.8704 14.2358 14.4499 14.9403C14.0295 15.6449 13.5067 16.2443 12.8817 16.7386C12.2567 17.2273 11.555 17.5994 10.7766 17.8551C10.0039 18.1108 9.1772 18.2386 8.29652 18.2386C6.80788 18.2386 5.48402 17.875 4.32493 17.1477C3.16584 16.4205 2.25391 15.3864 1.58913 14.0455C0.924361 12.7045 0.591974 11.1136 0.591974 9.27273C0.591974 7.43182 0.924361 5.84091 1.58913 4.5C2.25391 3.15909 3.16584 2.125 4.32493 1.39773C5.48402 0.670454 6.80788 0.306818 8.29652 0.306818C9.1772 0.306818 10.0039 0.434659 10.7766 0.690341C11.555 0.946023 12.2567 1.32102 12.8817 1.81534C13.5067 2.30398 14.0295 2.90057 14.4499 3.60511C14.8704 4.30398 15.1602 5.10227 15.3192 6ZM19.4506 0.545454L24.6325 15.2386H24.837L30.0188 0.545454H32.2347L25.8256 18H23.6438L17.2347 0.545454H19.4506Z" fill="#FEFAFA"/>
</svg>
